<svg xmlns="http://www.w3.org/2000/svg" width="260" height="220" viewBox="0 0 260 220" role="img" aria-labelledby="title desc">
  <title id="title">FeriApp logo compacto para fondo oscuro</title>
  <desc id="desc">Puesto de feria compacto con el nombre FeriApp para usar sobre el panel verde.</desc>
  <g fill="none" stroke-linecap="round" stroke-linejoin="round">
    <path d="M48 74h164v80H48z" fill="#F8F9F6" stroke="#F2F4F1" stroke-width="7"/>
    <path d="M42 36h176l12 42c3 22-23 27-35 6-10 22-39 22-49 0-10 22-39 22-49 0-10 22-39 22-49 0-12 21-38 16-35-6z" fill="#2F7D3A" stroke="#F2F4F1" stroke-width="7"/>
    <path d="M77 38h28l-8 53c-12 11-29 8-36-7zM139 38h28l-4 53c-11 11-30 8-37-7z" fill="#F2F4F1" stroke="#F2F4F1" stroke-width="2"/>
    <path d="M42 154h176" stroke="#F2F4F1" stroke-width="11"/>
    <path d="M151 28c23-5 37-18 40-38-22 4-36 17-40 38z" fill="#66BB6A" stroke="#F2F4F1" stroke-width="5" transform="translate(0 14)"/>
    <path d="M156 42c11-8 20-17 28-29" stroke="#1F5E2C" stroke-width="4"/>
  </g>
  <text x="130" y="128" fill="#143F24" text-anchor="middle" font-family="Nunito, Poppins, Arial Rounded MT Bold, Arial, sans-serif" font-size="42" font-weight="900">FeriApp</text>
  <text x="130" y="198" fill="#F2F4F1" text-anchor="middle" font-family="Nunito, Poppins, Arial, sans-serif" font-size="19" font-weight="900">La feria digital</text>
  <text x="130" y="219" fill="#F2F4F1" text-anchor="middle" font-family="Nunito, Poppins, Arial, sans-serif" font-size="19" font-weight="900">de tu barrio</text>
</svg>
