<svg xmlns="http://www.w3.org/2000/svg" width="560" height="160" viewBox="0 0 560 160" role="img" aria-labelledby="title desc">
  <title id="title">FeriApp logo horizontal</title>
  <desc id="desc">Icono de puesto de feria junto al nombre FeriApp.</desc>
  <rect width="560" height="160" rx="24" fill="none"/>
  <g transform="translate(20 20)" fill="none" stroke-linecap="round" stroke-linejoin="round">
    <path d="M16 48h128v78H16z" fill="#F8F9F6" stroke="#1F5E2C" stroke-width="7"/>
    <path d="M14 18h132l11 32c2 15-16 20-25 5-7 16-29 16-36 0-7 16-29 16-36 0-7 16-29 16-36 0-8 15-25 10-22-5z" fill="#2F7D3A" stroke="#1F5E2C" stroke-width="6"/>
    <path d="M47 19h18l-7 39c-9 8-21 5-26-3zM95 19h18l-4 39c-9 8-22 6-27-3z" fill="#F2F4F1" stroke="#F2F4F1" stroke-width="2"/>
    <path d="M9 126h142" stroke="#1F5E2C" stroke-width="10"/>
    <path d="M106 16c17-4 27-14 29-29-16 3-26 13-29 29z" fill="#66BB6A" stroke="#2F7D3A" stroke-width="4" transform="translate(0 8)"/>
    <path d="M109 21c8-6 16-13 22-22" stroke="#1F5E2C" stroke-width="3"/>
    <circle cx="96" cy="112" r="9" stroke="#143F24" stroke-width="4"/>
    <circle cx="128" cy="112" r="9" stroke="#143F24" stroke-width="4"/>
    <path d="M96 112l14-24h10l8 24M111 88l7 24M105 101h19" stroke="#143F24" stroke-width="4"/>
  </g>
  <text x="202" y="82" fill="#143F24" font-family="Nunito, Poppins, Arial Rounded MT Bold, Arial, sans-serif" font-size="56" font-weight="900">Feri</text>
  <text x="320" y="82" fill="#66BB6A" font-family="Nunito, Poppins, Arial Rounded MT Bold, Arial, sans-serif" font-size="56" font-weight="900">App</text>
  <text x="205" y="116" fill="#1F5E2C" font-family="Nunito, Poppins, Arial, sans-serif" font-size="20" font-weight="800">La feria digital de tu barrio</text>
</svg>
