<svg xmlns="http://www.w3.org/2000/svg" width="640" height="260" viewBox="0 0 640 260" role="img" aria-labelledby="title desc">
  <title id="title">FeriApp logo para fondo oscuro</title>
  <desc id="desc">Logo FeriApp claro para usar sobre fondos verdes u oscuros.</desc>
  <rect width="640" height="260" fill="none"/>
  <g fill="none" stroke="#FFFFFF" stroke-linecap="round" stroke-linejoin="round">
    <path d="M76 92h488" stroke-width="12"/>
    <path d="M94 98h452v120H94z" stroke-width="10"/>
    <path d="M88 42h464l22 52c4 27-45 30-54 3-8 27-57 27-65 0-8 27-57 27-65 0-8 27-57 27-65 0-8 27-57 27-65 0-8 27-57 27-65 0-10 27-58 24-54-3z" stroke-width="10"/>
    <path d="M74 218h492" stroke-width="18"/>
    <path d="M394 34c28-5 45-22 48-46-27 5-44 21-48 46z" fill="#FFFFFF" stroke-width="5" transform="translate(0 22)"/>
  </g>
  <text x="130" y="176" fill="#FFFFFF" font-family="Nunito, Poppins, Arial Rounded MT Bold, Arial, sans-serif" font-size="78" font-weight="900">FeriApp</text>
</svg>
